# Alias OBJ Model File
# Exported from SketchUp, (c) 2000-2012 Trimble Navigation Limited
# File units = meters

mtllib fee2814f-3ecc-4cdc-97b6-21b6b0b6a466.mtl

g Mesh1 Model

usemtl Helen_Skin
v 0 0 -0
vt 0 0
vn 0 -1 -0
v 0 0 -2.48
vt 0 97.6378
v 1.93 0 -2.48
vt -75.9843 97.6378
v 1.93 0 -0
vt -75.9843 0
f 1/1/1 2/2/1 3/3/1 4/4/1 

vt -97.6378 0
vn -1 0 -0
v 0 0.56 -0
vt 0 22.0472
v 0 0.56 -2.48
vt -97.6378 22.0472
f 2/5/2 1/1/2 5/6/2 6/7/2 

vn 0 0 1
vt 75.9843 0
v 1.93 0.56 -0
vt 75.9843 22.0472
f 1/1/3 4/8/3 7/9/3 5/6/3 

vn 1 0 -0
vt 97.6378 0
v 1.93 0.56 -2.48
vt 97.6378 22.0472
f 4/1/4 3/10/4 8/11/4 7/6/4 

vn 0 0 -1
vt -75.9843 22.0472
f 3/4/5 2/1/5 6/6/5 8/12/5 

vn 0 1 -0
vt 75.9843 97.6378
f 6/2/6 5/1/6 7/8/6 8/13/6 

