# Alias OBJ Model File
# Exported from SketchUp, (c) 2000-2012 Trimble Navigation Limited
# File units = meters

mtllib 676ed38b-1f03-400c-add2-06b455ab5c72.mtl

g Mesh1 Model

usemtl FrontColor
v 0 0 -0
vt 0 0
vn 0 -1 -0
v 0 0 -1.516
vt 0 59.685
v 1.89 0 -1.516
vt -74.4094 59.685
v 1.89 0 -0
vt -74.4094 0
f 1/1/1 2/2/1 3/3/1 4/4/1 

vt -59.685 0
vn -1 0 -0
v 0 0.03 -0
vt 0 1.1811
v 0 0.03 -1.516
vt -59.685 1.1811
f 2/5/2 1/1/2 5/6/2 6/7/2 

vn 0 0 1
vt 74.4094 0
v 1.89 0.03 -0
vt 74.4094 1.1811
f 1/1/3 4/8/3 7/9/3 5/6/3 

vn 1 0 -0
vt 59.685 0
v 1.89 0.03 -1.516
vt 59.685 1.1811
f 4/1/4 3/10/4 8/11/4 7/6/4 

vn 0 0 -1
vt -74.4094 1.1811
f 3/4/5 2/1/5 6/6/5 8/12/5 

usemtl Helen_BraceletGlasses
vt 0 1
vn 0 1 -0
vt 1 0
vt 1 1
f 6/13/6 5/1/6 7/14/6 8/15/6 

